; NON-PLATED HOLES START AT T1
; THROUGH (PLATED) HOLES START AT T100
M48
INCH
T100C0.015748
T101C0.038000
T102C0.090000
T103C0.130000
T104C0.036000
T105C0.035000
T106C0.032000
T107C0.040000
T108C0.035433
T109C0.030000
T110C0.039370
%
T100
X037401Y017007
X039448Y017007
T101
X035432Y016133
X000810Y010740
X017889Y019685
X040495Y011937
X042519Y015708
X037739Y013307
X032408Y017086
X023093Y009787
X041495Y013937
X034739Y005850
X011259Y005850
X041495Y007937
X033408Y017086
X018889Y019685
X041471Y018133
X036432Y019133
X031408Y015039
X032739Y012307
X015259Y005850
X021259Y006850
X040495Y007937
X029739Y006850
X042519Y021708
X030408Y017086
X001810Y015740
X020259Y013228
X001810Y007740
X001810Y012740
X012259Y006850
X001810Y006740
X006834Y019685
X026739Y012307
X002834Y019685
X034408Y019133
X042519Y013708
X033739Y013307
X010834Y019685
X035739Y012307
X025739Y013307
X032739Y013307
X001810Y014740
X008259Y005850
X026739Y006850
X043621Y012732
X035881Y021866
X037739Y005850
X040865Y006535
X043621Y014732
X013259Y005850
X025739Y005850
X036739Y013307
X028739Y006850
X012259Y005850
X028408Y019133
X023093Y005787
X040471Y019133
X018259Y006850
X031408Y017086
X009259Y006850
X008259Y012228
X031739Y006850
X035432Y015133
X026408Y018110
X008259Y013228
X019259Y013228
X034408Y017086
X040471Y015133
X014889Y019685
X015889Y019685
X020259Y005850
X034408Y015039
X041495Y012937
X023093Y012787
X043621Y016732
X040865Y005535
X001810Y013740
X040495Y010937
X031408Y016063
X025408Y019133
X034739Y006850
X040495Y012937
X041471Y019133
X036739Y012307
X025408Y017086
X024093Y008787
X036432Y015133
X031739Y013307
X040495Y009937
X041495Y009937
X014259Y006850
X000810Y009740
X001810Y011740
X025408Y015039
X034881Y020866
X013259Y013228
X042519Y014708
X017259Y005850
X029408Y016063
X019889Y019685
X029448Y021574
X031739Y012307
X000810Y012740
X024093Y011787
X032408Y015039
X029448Y020574
X012259Y012228
X024093Y010787
X033739Y012307
X038739Y013307
X035432Y019133
X017259Y006850
X041865Y006535
X027739Y005850
X013889Y019685
X013259Y006850
X012889Y019685
X014259Y005850
X023093Y006787
X026739Y013307
X029408Y018110
X027408Y015039
X026408Y019133
X040471Y017133
X033408Y016063
X032739Y006850
X018259Y013228
X028408Y017086
X025739Y006850
X001810Y009740
X032739Y005850
X034881Y021866
X035881Y020866
X000810Y013740
X025408Y018110
X016889Y019685
X042519Y016708
X033408Y015039
X020968Y019685
X005834Y019685
X032408Y019133
X041259Y020338
X024093Y006787
X034408Y018110
X034408Y016063
X036432Y018133
X032408Y018110
X009834Y019685
X036432Y017133
X021259Y005850
X028739Y005850
X043621Y020732
X009259Y012228
X023093Y010787
X018259Y012228
X027739Y013307
X038739Y006850
X008259Y006850
X033408Y019133
X028739Y012307
X040471Y016133
X033739Y006850
X042519Y020708
X037739Y012307
X043621Y018732
X021259Y013228
X011259Y012228
X028408Y016063
X029408Y019133
X010259Y006850
X024093Y005787
X031408Y019133
X024093Y007787
X041495Y010937
X011259Y013228
X000810Y015740
X030739Y012307
X009259Y013228
X008834Y019685
X040471Y018133
X001810Y008740
X026408Y015039
X035739Y005850
X017259Y012228
X043621Y021732
X017259Y013228
X036739Y006850
X016259Y013228
X040495Y008937
X029739Y005850
X001810Y010740
X021968Y019685
X027408Y016063
X040495Y013937
X026408Y017086
X015259Y006850
X028739Y013307
X026739Y005850
X029408Y017086
X027739Y012307
X036739Y005850
X030408Y015039
X030408Y018110
X041865Y005535
X011889Y019685
X029739Y013307
X007834Y019685
X038739Y012307
X035739Y006850
X000810Y014740
X038739Y005850
X013259Y012228
X032408Y016063
X024093Y009787
X033739Y005850
X000810Y006740
X020259Y012228
X010259Y013228
X011259Y006850
X019259Y005850
X003834Y019685
X031739Y005850
X010259Y005850
X030408Y019133
X033408Y018110
X041495Y011937
X014259Y012228
X043621Y017732
X025408Y016063
X016259Y005850
X027408Y017086
X043621Y013732
X015259Y012228
X030739Y013307
X041471Y017133
X009259Y005850
X000810Y007740
X028408Y015039
X035432Y018133
X021259Y012228
X010259Y012228
X004834Y019685
X012259Y013228
X042519Y012708
X024093Y012787
X016259Y012228
X026408Y016063
X027739Y006850
X035739Y013307
X041259Y021338
X031408Y018110
X030739Y006850
X000810Y008740
X041471Y015133
X023093Y007787
X025739Y012307
X043621Y019732
X015259Y013228
X019259Y006850
X034739Y013307
X020259Y006850
X014259Y013228
X023093Y011787
X016259Y006850
X042519Y019708
X036432Y016133
X030739Y005850
X018259Y005850
X030408Y016063
X028408Y018110
X034739Y012307
X037739Y006850
X041471Y016133
X023093Y008787
X042519Y018708
X029739Y012307
X027408Y018110
X029408Y015039
X043621Y015732
X035432Y017133
X019259Y012228
X041495Y008937
X000810Y011740
X027408Y019133
X042519Y017708
T102
X043688Y002559
X038948Y002559
T103
X001716Y001173
X011558Y001173
X024118Y004086
X014275Y001173
X026847Y001173
X011555Y004102
X024118Y001173
X014275Y004086
X001712Y004102
X026847Y004086
X036690Y004086
X036690Y001173
T104
X041810Y003629
X040826Y003629
X041810Y004409
X040826Y004409
T105
X002834Y018724
X017873Y014724
X013936Y018724
X019920Y018724
X009841Y014724
X014960Y014724
X002834Y009763
X006834Y007716
X002834Y011653
X020944Y018724
X002834Y007716
X007873Y018724
X019920Y014724
X008818Y018724
X002834Y013700
X016928Y018724
X007873Y014724
X018897Y014724
X015905Y018724
X003857Y018724
X006834Y011653
X013936Y014724
X020944Y014724
X010865Y014724
X018897Y018724
X015905Y014724
X003857Y014724
X006834Y012677
X008818Y014724
X012912Y014724
X006834Y013700
X010865Y018724
X006834Y008740
X004881Y014724
X006849Y014724
X006834Y009763
X016928Y014724
X002834Y012677
X009841Y018724
X014960Y018724
X006849Y018724
X011889Y014724
X004881Y018724
X021968Y018724
X012912Y018724
X005904Y018724
X005904Y014724
X011889Y018724
X002834Y014724
X021968Y014724
X017873Y018724
X002834Y008740
T106
X021267Y008110
X012267Y011110
X016267Y011110
X013267Y011110
X038747Y008110
X011267Y008110
X034747Y008110
X018267Y008110
X017267Y008110
X015267Y008110
X035747Y008110
X033747Y008110
X031747Y008110
X014267Y008110
X028747Y008110
X032747Y011110
X012267Y008110
X010267Y008110
X020267Y008110
X033747Y011110
X019267Y008110
X029747Y011110
X027747Y008110
X037747Y011110
X008267Y008110
X032747Y008110
X035747Y011110
X028747Y011110
X008267Y011110
X020267Y011110
X015267Y011110
X030747Y008110
X036747Y008110
X010267Y011110
X029747Y008110
X025747Y011110
X027747Y011110
X037747Y008110
X026747Y011110
X019267Y011110
X036747Y011110
X009267Y011110
X038747Y011110
X018267Y011110
X013267Y008110
X011267Y011110
X034747Y011110
X021267Y011110
X016267Y008110
X031747Y011110
X014267Y011110
X009267Y008110
X030747Y011110
X026747Y008110
X025747Y008110
X017267Y011110
T107
X017016Y001732
X030135Y000614
X029587Y001732
X033950Y004645
X008818Y001732
X006634Y004661
X033950Y001732
X019197Y001732
X007727Y001732
X006637Y001732
X029587Y004645
X019197Y004645
X019740Y003527
X007177Y003543
X006093Y000614
X008268Y003543
X005003Y000614
X018106Y001732
X020831Y003527
X030678Y001732
X019740Y000614
X005543Y004661
X008815Y004661
X032859Y001732
X017016Y004645
X017563Y003527
X031225Y000614
X006090Y003543
X018653Y003527
X032312Y000614
X032312Y003527
X020287Y004645
X007180Y000614
X021378Y001732
X031225Y003527
X005546Y001732
X031769Y001732
X020287Y001732
X004456Y001732
X004453Y004661
X008271Y000614
X031769Y004645
X017563Y000614
X033402Y003527
X033402Y000614
X005000Y003543
X018653Y000614
X020831Y000614
X032859Y004645
X030135Y003527
X021378Y004645
X018106Y004645
X030678Y004645
X007724Y004661
T108
X022834Y013937
T109
X037243Y020157
X040056Y020157
X039054Y020157
X038245Y020157
T110
X039582Y021338
X037582Y021338
X038582Y021338
T00
M30
